<svg id="a8d2c697-1d48-4e7a-920b-faa6ae44ddc9" data-name="Слой 1" xmlns="http://www.w3.org/2000/svg" viewBox="0 0 160 50"><defs><style>.a373c0f7-636e-4e3e-8bb9-c7977aafac31{fill:#fff}</style></defs><path d="M0 0h160v50H0z"/><path class="a373c0f7-636e-4e3e-8bb9-c7977aafac31" d="M33.285 24.73a7.246 7.246 0 0 1 3.451-6.08 7.422 7.422 0 0 0-5.845-3.16c-2.458-.259-4.843 1.471-6.096 1.471-1.278 0-3.206-1.446-5.285-1.403a7.782 7.782 0 0 0-6.55 3.994c-2.833 4.904-.72 12.11 1.994 16.074 1.357 1.942 2.943 4.109 5.02 4.033 2.031-.084 2.79-1.295 5.241-1.295 2.429 0 3.141 1.295 5.259 1.246 2.18-.035 3.552-1.95 4.862-3.909a16.04 16.04 0 0 0 2.224-4.529 7.005 7.005 0 0 1-4.275-6.442zM29.285 12.883a7.132 7.132 0 0 0 1.633-5.112 7.265 7.265 0 0 0-4.698 2.43 6.787 6.787 0 0 0-1.675 4.923 6.001 6.001 0 0 0 4.74-2.242zM62.681 39.38h-2.838l-1.556-4.886h-5.404L51.4 39.38h-2.764l5.356-16.635H57.3zm-4.862-6.936L56.412 28.1q-.223-.666-.838-3.134h-.05q-.246 1.062-.79 3.134l-1.382 4.344zM76.453 33.235a6.816 6.816 0 0 1-1.654 4.836 4.836 4.836 0 0 1-3.678 1.58 3.677 3.677 0 0 1-3.406-1.702h-.05v6.319H65V31.334q0-1.924-.099-3.949h2.344l.149 1.901h.05a4.742 4.742 0 0 1 7.589-.47 6.609 6.609 0 0 1 1.42 4.419zm-2.716.098a4.938 4.938 0 0 0-.79-2.888 2.728 2.728 0 0 0-2.32-1.185 2.771 2.771 0 0 0-1.788.654 3.032 3.032 0 0 0-1.049 1.716 3.49 3.49 0 0 0-.124.813v2a3.205 3.205 0 0 0 .803 2.21 2.66 2.66 0 0 0 2.085.9 2.728 2.728 0 0 0 2.343-1.16 5.105 5.105 0 0 0 .84-3.06zM90.249 33.235a6.811 6.811 0 0 1-1.655 4.836 4.831 4.831 0 0 1-3.676 1.58 3.674 3.674 0 0 1-3.406-1.702h-.05v6.319h-2.664V31.334q0-1.924-.1-3.949h2.345l.148 1.901h.05a4.743 4.743 0 0 1 7.59-.47 6.627 6.627 0 0 1 1.418 4.419zm-2.715.098a4.939 4.939 0 0 0-.792-2.888 2.725 2.725 0 0 0-2.318-1.185 2.775 2.775 0 0 0-1.79.654 3.03 3.03 0 0 0-1.048 1.716 3.557 3.557 0 0 0-.123.813v2a3.215 3.215 0 0 0 .8 2.21 2.666 2.666 0 0 0 2.087.9 2.728 2.728 0 0 0 2.344-1.16 5.105 5.105 0 0 0 .84-3.06zM105.674 34.715a4.433 4.433 0 0 1-1.478 3.455 6.548 6.548 0 0 1-4.531 1.456 7.932 7.932 0 0 1-4.311-1.036l.617-2.221a7.305 7.305 0 0 0 3.853 1.062 3.642 3.642 0 0 0 2.346-.68 2.22 2.22 0 0 0 .838-1.817 2.317 2.317 0 0 0-.692-1.705 6.426 6.426 0 0 0-2.295-1.286q-4.368-1.63-4.367-4.77a4.22 4.22 0 0 1 1.531-3.362 6.037 6.037 0 0 1 4.073-1.31 8.074 8.074 0 0 1 3.775.79l-.667 2.173a6.55 6.55 0 0 0-3.183-.765 3.223 3.223 0 0 0-2.195.691 1.975 1.975 0 0 0-.667 1.506 2.033 2.033 0 0 0 .764 1.629 8.632 8.632 0 0 0 2.42 1.284 8.21 8.21 0 0 1 3.159 2.022 4.225 4.225 0 0 1 1.01 2.884zM114.485 29.385h-2.938v5.824q0 2.222 1.556 2.221a4.74 4.74 0 0 0 1.183-.124l.074 2.024a6.038 6.038 0 0 1-2.072.295 3.198 3.198 0 0 1-2.47-.963 4.728 4.728 0 0 1-.888-3.233v-6.047h-1.75v-2h1.75v-2.196l2.618-.79v2.986h2.937zM127.739 33.284a6.58 6.58 0 0 1-1.58 4.541 5.641 5.641 0 0 1-4.395 1.826 5.364 5.364 0 0 1-4.206-1.751 6.378 6.378 0 0 1-1.568-4.418 6.515 6.515 0 0 1 1.616-4.564 5.594 5.594 0 0 1 4.355-1.778 5.478 5.478 0 0 1 4.245 1.752 6.306 6.306 0 0 1 1.533 4.392zm-2.765.086a5.395 5.395 0 0 0-.715-2.846 2.632 2.632 0 0 0-2.393-1.435 2.672 2.672 0 0 0-2.444 1.435 5.499 5.499 0 0 0-.715 2.896 5.388 5.388 0 0 0 .715 2.845 2.724 2.724 0 0 0 4.813-.025 5.415 5.415 0 0 0 .739-2.87zM136.401 29.729a4.627 4.627 0 0 0-.84-.074 2.518 2.518 0 0 0-2.172 1.063 3.993 3.993 0 0 0-.667 2.368v6.294h-2.663l.025-8.217q0-2.074-.1-3.777h2.321l.098 2.295h.073a4.102 4.102 0 0 1 1.333-1.9 3.222 3.222 0 0 1 1.926-.642 4.279 4.279 0 0 1 .666.049zM148.32 32.815a6.25 6.25 0 0 1-.098 1.209h-7.995a3.48 3.48 0 0 0 1.16 2.716 3.96 3.96 0 0 0 2.615.839 8.843 8.843 0 0 0 3.235-.568l.418 1.85a10.001 10.001 0 0 1-4.021.742 5.825 5.825 0 0 1-4.383-1.642 6.062 6.062 0 0 1-1.591-4.405 6.872 6.872 0 0 1 1.482-4.516 5.107 5.107 0 0 1 4.194-1.924 4.47 4.47 0 0 1 3.926 1.924 6.487 6.487 0 0 1 1.058 3.775zm-2.541-.691a3.62 3.62 0 0 0-.518-2.049 2.328 2.328 0 0 0-2.124-1.111 2.528 2.528 0 0 0-2.12 1.086 3.977 3.977 0 0 0-.79 2.072h5.552zM56.938 12.511a4.104 4.104 0 0 1-1.323 3.323 5.26 5.26 0 0 1-3.479 1.03 16.13 16.13 0 0 1-1.916-.098V8.728a14.14 14.14 0 0 1 2.256-.17 4.864 4.864 0 0 1 3.238.933 3.774 3.774 0 0 1 1.224 3.02zm-1.382.037a2.988 2.988 0 0 0-.757-2.195 2.986 2.986 0 0 0-2.214-.764 5.544 5.544 0 0 0-1.055.085v6.111a6.917 6.917 0 0 0 .885.036 3.099 3.099 0 0 0 2.321-.836 3.349 3.349 0 0 0 .82-2.438zM64.261 13.796a3.232 3.232 0 0 1-.776 2.232 2.77 2.77 0 0 1-2.159.897 2.633 2.633 0 0 1-2.067-.861 3.137 3.137 0 0 1-.769-2.17 3.2 3.2 0 0 1 .794-2.243 2.753 2.753 0 0 1 2.14-.872 2.695 2.695 0 0 1 2.086.86 3.111 3.111 0 0 1 .751 2.157zm-1.358.043a2.665 2.665 0 0 0-.352-1.399 1.294 1.294 0 0 0-1.175-.705 1.314 1.314 0 0 0-1.201.705 2.7 2.7 0 0 0-.351 1.423 2.665 2.665 0 0 0 .351 1.398 1.322 1.322 0 0 0 1.189.705 1.307 1.307 0 0 0 1.175-.717 2.648 2.648 0 0 0 .364-1.41zM74.081 10.899l-1.844 5.892h-1.2l-.763-2.559a19.15 19.15 0 0 1-.474-1.903h-.024a13.938 13.938 0 0 1-.474 1.903l-.81 2.56h-1.215l-1.733-5.893h1.346l.666 2.801q.242.994.4 1.891h.024q.146-.739.486-1.879l.837-2.812h1.067l.801 2.752q.29 1.007.473 1.94h.036a18.536 18.536 0 0 1 .4-1.94l.715-2.752h1.286zM80.873 16.791h-1.31v-3.375q0-1.56-1.188-1.56a1.182 1.182 0 0 0-.946.429 1.521 1.521 0 0 0-.364 1.01v3.495h-1.31v-4.207q0-.777-.047-1.687h1.15l.062.921h.036a1.893 1.893 0 0 1 .679-.71 2.214 2.214 0 0 1 1.188-.332 1.88 1.88 0 0 1 1.37.534 2.593 2.593 0 0 1 .68 1.952zM84.485 16.791h-1.309V8.195h1.309zM92.198 13.796a3.232 3.232 0 0 1-.777 2.232 2.772 2.772 0 0 1-2.159.897 2.63 2.63 0 0 1-2.067-.861 3.137 3.137 0 0 1-.769-2.17 3.2 3.2 0 0 1 .794-2.243 2.752 2.752 0 0 1 2.139-.872 2.698 2.698 0 0 1 2.087.86 3.111 3.111 0 0 1 .752 2.157zm-1.36.043a2.665 2.665 0 0 0-.352-1.399 1.292 1.292 0 0 0-1.174-.705 1.311 1.311 0 0 0-1.2.705 2.7 2.7 0 0 0-.352 1.423 2.665 2.665 0 0 0 .351 1.398 1.322 1.322 0 0 0 1.189.705 1.305 1.305 0 0 0 1.174-.717 2.637 2.637 0 0 0 .364-1.41zM98.537 16.791h-1.176l-.097-.678h-.036a2.017 2.017 0 0 1-1.722.812 1.776 1.776 0 0 1-1.345-.534 1.674 1.674 0 0 1-.461-1.2 1.83 1.83 0 0 1 .904-1.649 4.69 4.69 0 0 1 2.541-.557v-.11q0-1.164-1.224-1.164a2.74 2.74 0 0 0-1.536.436l-.266-.86a3.779 3.779 0 0 1 2.021-.508q2.31 0 2.313 2.437v2.17a9.203 9.203 0 0 0 .084 1.405zm-1.36-2.025v-.909q-2.167-.037-2.167 1.188a.888.888 0 0 0 .251.691.916.916 0 0 0 .64.23 1.323 1.323 0 0 0 .802-.272 1.118 1.118 0 0 0 .474-.928zM105.981 16.791h-1.162l-.061-.946h-.037a1.959 1.959 0 0 1-1.892 1.08 2.218 2.218 0 0 1-1.77-.836 3.258 3.258 0 0 1-.703-2.17 3.416 3.416 0 0 1 .764-2.317 2.348 2.348 0 0 1 1.819-.825 1.766 1.766 0 0 1 1.66.8h.025V8.196h1.311v7.009q0 .86.046 1.587zm-1.357-2.485v-.982a1.929 1.929 0 0 0-.036-.413 1.492 1.492 0 0 0-.474-.793 1.288 1.288 0 0 0-.876-.322 1.344 1.344 0 0 0-1.153.583 2.496 2.496 0 0 0-.42 1.491 2.327 2.327 0 0 0 .403 1.419 1.348 1.348 0 0 0 1.145.581 1.262 1.262 0 0 0 1.035-.485 1.615 1.615 0 0 0 .376-1.079zM117.185 13.796a3.232 3.232 0 0 1-.776 2.232 2.769 2.769 0 0 1-2.159.897 2.637 2.637 0 0 1-2.067-.861 3.137 3.137 0 0 1-.77-2.17 3.2 3.2 0 0 1 .795-2.243 2.754 2.754 0 0 1 2.14-.872 2.692 2.692 0 0 1 2.086.86 3.111 3.111 0 0 1 .751 2.157zm-1.357.043a2.665 2.665 0 0 0-.352-1.399 1.296 1.296 0 0 0-1.176-.705 1.317 1.317 0 0 0-1.201.705 2.7 2.7 0 0 0-.351 1.423 2.665 2.665 0 0 0 .35 1.398 1.339 1.339 0 0 0 2.366-.012 2.66 2.66 0 0 0 .364-1.41zM124.229 16.791h-1.309v-3.375q0-1.56-1.189-1.56a1.178 1.178 0 0 0-.945.429 1.515 1.515 0 0 0-.363 1.01v3.495h-1.312v-4.207q0-.777-.046-1.687h1.15l.061.921h.036a1.912 1.912 0 0 1 .68-.71 2.218 2.218 0 0 1 1.188-.332 1.88 1.88 0 0 1 1.37.534 2.589 2.589 0 0 1 .679 1.952zM133.045 11.88h-1.442v2.862c0 .728.256 1.092.763 1.092a2.307 2.307 0 0 0 .584-.061l.034.993a2.943 2.943 0 0 1-1.018.147 1.566 1.566 0 0 1-1.211-.473 2.311 2.311 0 0 1-.438-1.589V11.88h-.86v-.981h.86v-1.08l1.284-.388v1.467h1.443v.982zM139.98 16.791h-1.311v-3.35q0-1.584-1.187-1.585a1.25 1.25 0 0 0-1.25.919 1.646 1.646 0 0 0-.06.471v3.544h-1.31V8.195h1.31v3.551h.024a1.98 1.98 0 0 1 1.77-.969 1.826 1.826 0 0 1 1.348.534 2.684 2.684 0 0 1 .666 1.976zM147.134 13.566a3.164 3.164 0 0 1-.049.594h-3.929a1.718 1.718 0 0 0 .569 1.334 1.952 1.952 0 0 0 1.286.412 4.34 4.34 0 0 0 1.589-.279l.205.91a4.934 4.934 0 0 1-1.978.364 2.856 2.856 0 0 1-2.15-.806 2.97 2.97 0 0 1-.782-2.164 3.372 3.372 0 0 1 .728-2.219 2.505 2.505 0 0 1 2.06-.945 2.192 2.192 0 0 1 1.926.945 3.146 3.146 0 0 1 .525 1.854zm-1.25-.339a1.764 1.764 0 0 0-.254-1.006 1.144 1.144 0 0 0-1.042-.546 1.244 1.244 0 0 0-1.043.534 1.983 1.983 0 0 0-.389 1.019z"/></svg>