<svg xmlns="http://www.w3.org/2000/svg" viewBox="0 0 160 50"><defs><linearGradient id="a" x1="1609.859" y1="-1303.523" x2="1608.057" y2="-1302.592" gradientTransform="matrix(11.64 0 0 22.55 -18716.236 29405.32)" gradientUnits="userSpaceOnUse"><stop offset="0" stop-color="#00a0ff"/><stop offset=".007" stop-color="#00a1ff"/><stop offset=".26" stop-color="#00beff"/><stop offset=".512" stop-color="#00d2ff"/><stop offset=".76" stop-color="#00dfff"/><stop offset="1" stop-color="#00e3ff"/></linearGradient><linearGradient id="b" x1="1569.3" y1="-1324.877" x2="1565.993" y2="-1324.877" gradientTransform="matrix(9.145 0 0 7.7 -14313.683 10226.551)" gradientUnits="userSpaceOnUse"><stop offset="0" stop-color="#ffe000"/><stop offset=".409" stop-color="#ffbd00"/><stop offset=".775" stop-color="orange"/><stop offset="1" stop-color="#ff9c00"/></linearGradient><linearGradient id="c" x1="1643.845" y1="-1313.956" x2="1641.951" y2="-1311.499" gradientTransform="matrix(15.02 0 0 11.5775 -24664.249 15240.196)" gradientUnits="userSpaceOnUse"><stop offset="0" stop-color="#ff3a44"/><stop offset="1" stop-color="#c31162"/></linearGradient><linearGradient id="d" x1="1642.386" y1="-1315.354" x2="1643.232" y2="-1314.257" gradientTransform="matrix(15.02 0 0 11.5715 -24664.249 15220.846)" gradientUnits="userSpaceOnUse"><stop offset="0" stop-color="#32a071"/><stop offset=".069" stop-color="#2da771"/><stop offset=".476" stop-color="#15cf74"/><stop offset=".801" stop-color="#06e775"/><stop offset="1" stop-color="#00f076"/></linearGradient></defs><path d="M0 0h160v50H0z" data-name="Слой 1"/><g data-name="Слой 2"><path d="M84.542 16.54a3.804 3.804 0 0 1-2.84-1.175 4.002 4.002 0 0 1-1.147-2.868 3.913 3.913 0 0 1 1.147-2.865 3.793 3.793 0 0 1 2.837-1.175 3.844 3.844 0 0 1 2.84 1.175 4.15 4.15 0 0 1 0 5.73 3.772 3.772 0 0 1-2.837 1.178zm-33.67 0a3.945 3.945 0 0 1-2.851-1.16 3.895 3.895 0 0 1-1.176-2.88 3.987 3.987 0 0 1 4.028-4.04 3.975 3.975 0 0 1 1.593.33 3.221 3.221 0 0 1 1.212.867l.075.09-.845.83-.087-.103a2.401 2.401 0 0 0-1.96-.845 2.71 2.71 0 0 0-1.955.798 2.787 2.787 0 0 0-.823 2.076 2.787 2.787 0 0 0 .823 2.076 2.858 2.858 0 0 0 3.962 0 2.159 2.159 0 0 0 .573-1.3h-2.708v-1.166h3.871l.016.106a4.276 4.276 0 0 1 .056.586 3.51 3.51 0 0 1-.967 2.588 3.772 3.772 0 0 1-2.836 1.147zm44.767-.165h-1.194l-3.656-5.851.03 1.053v4.795h-1.193V8.625h1.362l.038.06 3.438 5.51-.031-1.05v-4.52h1.206v7.75zm-20.069 0h-1.209V9.79h-2.098V8.625h5.402v1.166h-2.098v6.584zm-4.292 0h-1.206v-7.75h1.206zm-6.78 0h-1.206V9.79h-2.098V8.625h5.402v1.166h-2.098zm-4.068-.013h-4.626V8.625h4.626v1.166h-3.416v2.126h3.083v1.153h-3.083v2.126h3.416zm22.157-1.798a2.67 2.67 0 0 0 1.955.81 2.602 2.602 0 0 0 1.954-.81 2.805 2.805 0 0 0 .798-2.064 2.81 2.81 0 0 0-.795-2.064 2.674 2.674 0 0 0-1.954-.81 2.59 2.59 0 0 0-1.952.81 2.805 2.805 0 0 0-.798 2.064 2.808 2.808 0 0 0 .792 2.064z" style="fill:#fff"/><path d="M80.443 27.195a5.318 5.318 0 1 0 5.333 5.318 5.235 5.235 0 0 0-5.333-5.318zm0 8.528A3.232 3.232 0 1 1 83.44 32.5a3.077 3.077 0 0 1-2.998 3.223zm-11.637-8.528a5.318 5.318 0 1 0 5.334 5.318 5.235 5.235 0 0 0-5.334-5.318zm0 8.528a3.232 3.232 0 1 1 2.999-3.223 3.077 3.077 0 0 1-2.999 3.223zM54.96 28.82v2.25h5.403a4.744 4.744 0 0 1-1.222 2.834 5.512 5.512 0 0 1-4.168 1.652 6.001 6.001 0 0 1 0-12.001 5.767 5.767 0 0 1 4.068 1.611l1.596-1.596a7.848 7.848 0 0 0-5.652-2.278 8.252 8.252 0 1 0 0 16.502 7.553 7.553 0 0 0 5.764-2.32 7.468 7.468 0 0 0 1.958-5.277 6.96 6.96 0 0 0-.125-1.402h-7.625zm56.637 1.751a4.942 4.942 0 0 0-4.554-3.388 5.052 5.052 0 0 0-5.013 5.318 5.198 5.198 0 0 0 5.278 5.318 5.278 5.278 0 0 0 4.43-2.36l-1.806-1.21a3.024 3.024 0 0 1-2.612 1.472 2.716 2.716 0 0 1-2.584-1.611l7.11-2.946zm-7.25 1.777a2.919 2.919 0 0 1 2.777-3.098 2.05 2.05 0 0 1 1.973 1.125zM98.568 37.5h2.335V21.877h-2.335zm-3.834-9.124h-.084a3.683 3.683 0 0 0-2.806-1.194 5.318 5.318 0 0 0 0 10.627 3.673 3.673 0 0 0 2.806-1.21h.084v.764c0 2.03-1.085 3.123-2.834 3.123a2.948 2.948 0 0 1-2.68-1.889l-2.03.848a5.076 5.076 0 0 0 4.707 3.14c2.737 0 5.056-1.612 5.056-5.543V27.5h-2.207v.876zm-2.68 7.347a3.049 3.049 0 0 1-2.959-3.207 3.065 3.065 0 0 1 2.958-3.236 2.99 2.99 0 0 1 2.834 3.236 2.952 2.952 0 0 1-2.834 3.207zm30.473-13.846h-5.583V37.5h2.335v-5.916h3.251a4.86 4.86 0 1 0-.003-9.707zm.069 7.525h-3.32V24.04h3.32a2.681 2.681 0 1 1 0 5.362zm14.417-2.235a4.397 4.397 0 0 0-4.168 2.387l2.07.86a2.22 2.22 0 0 1 2.126-1.153 2.255 2.255 0 0 1 2.46 2.014v.165a5.23 5.23 0 0 0-2.432-.598c-2.235 0-4.501 1.222-4.501 3.513a3.611 3.611 0 0 0 3.874 3.444 3.286 3.286 0 0 0 2.97-1.527h.085v1.21h2.25v-5.986c0-2.787-2.07-4.33-4.734-4.33zm-.293 8.556c-.764 0-1.833-.374-1.833-1.334 0-1.21 1.334-1.668 2.472-1.668a4.052 4.052 0 0 1 2.126.527 2.81 2.81 0 0 1-2.765 2.475zm13.238-8.223-2.68 6.777h-.084l-2.778-6.777h-2.512l4.167 9.473-2.375 5.265h2.431l6.413-14.738zm-21.016 10h2.335V21.877h-2.335z" style="fill-rule:evenodd;fill:#fff"/><path d="M8.32 9.417a2.532 2.532 0 0 0-.57 1.764v27.64a2.41 2.41 0 0 0 .582 1.75l.097.084 15.486-15.487v-.346L8.416 9.332z" style="fill:url(#a);fill-rule:evenodd"/><path d="m29.068 30.346-5.165-5.165v-.362l5.165-5.165.112.069 6.11 3.472c1.749.985 1.749 2.612 0 3.61l-6.11 3.472z" style="fill:url(#b);fill-rule:evenodd"/><path d="M29.18 30.277 23.903 25 8.32 40.583a2.045 2.045 0 0 0 2.596.084l18.264-10.39" style="fill:url(#c);fill-rule:evenodd"/><path d="M29.18 19.723 10.916 9.349a2.025 2.025 0 0 0-2.596.084L23.903 25z" style="fill:url(#d);fill-rule:evenodd"/><path d="m29.068 30.165-18.14 10.306a2.058 2.058 0 0 1-2.5.012l-.096.097.097.084a2.063 2.063 0 0 0 2.5-.013l18.264-10.374z" style="isolation:isolate;opacity:.2;fill-rule:evenodd"/><path d="m35.29 26.624-6.238 3.541.113.112 6.11-3.472A2.19 2.19 0 0 0 36.58 25a2.249 2.249 0 0 1-1.29 1.624z" style="opacity:.12;isolation:isolate;fill-rule:evenodd"/><path d="M10.916 9.53 35.29 23.375A2.297 2.297 0 0 1 36.596 25a2.19 2.19 0 0 0-1.306-1.805L10.916 9.348c-1.748-1-3.167-.165-3.167 1.833v.181c0-2.001 1.419-2.82 3.167-1.833z" style="opacity:.25;isolation:isolate;fill-rule:evenodd;fill:#fff"/></g></svg>