<svg id="a1f767ad-72ed-4976-a36a-eb2503bfb1d4" data-name="Слой 1" xmlns="http://www.w3.org/2000/svg" viewBox="0 0 33 33"><defs><style>.ed062c76-e544-4d07-aed6-d7e651c44891{fill:#295091;fill-rule:evenodd}</style></defs><path class="ed062c76-e544-4d07-aed6-d7e651c44891" d="M17.501 1A16.5 16.5 0 1 0 34 17.501 16.5 16.5 0 0 0 17.501 1zm.023 5.018a5.82 5.82 0 1 1-4.115 1.693 5.813 5.813 0 0 1 4.115-1.693zm6.51 13.906a6.982 6.982 0 0 1-2.517 1.627 11.825 11.825 0 0 1-2.856.64c.147.16.217.238.31.331 1.32 1.328 2.65 2.65 3.966 3.984a1.312 1.312 0 0 1 .296 1.545 1.567 1.567 0 0 1-1.47.916 1.434 1.434 0 0 1-.929-.474c-.997-1.004-2.014-1.991-2.992-3.013-.285-.3-.422-.242-.673.016q-1.508 1.548-3.05 3.063a1.28 1.28 0 0 1-1.543.276 1.562 1.562 0 0 1-.903-1.437 1.446 1.446 0 0 1 .485-.965q1.965-1.96 3.919-3.925c.088-.088.168-.18.293-.316a8.919 8.919 0 0 1-4.76-1.697c-.17-.134-.347-.264-.502-.413a1.426 1.426 0 0 1 1.614-2.325 2.943 2.943 0 0 1 .396.232 7.8 7.8 0 0 0 8.65.08 2.32 2.32 0 0 1 .842-.436 1.319 1.319 0 0 1 1.515.605 1.282 1.282 0 0 1-.091 1.686z" transform="translate(-1 -1)"/><path class="ed062c76-e544-4d07-aed6-d7e651c44891" d="M17.386 14.153a2.96 2.96 0 1 1 .001 0z" transform="translate(-1 -1)"/></svg>