<svg data-name="Слой 1" xmlns="http://www.w3.org/2000/svg" viewBox="0 0 33 33"><defs><mask id="a" x="0" y="0" width="33" height="33" maskUnits="userSpaceOnUse"><path d="M1.05 1H34v33H1.05z" style="fill:#fff" transform="translate(-1 -1)" data-name="mask0 32:135"/></mask></defs><g style="mask:url(#a)"><path d="M17.5 1A16.5 16.5 0 1 0 34 17.5 16.516 16.516 0 0 0 17.5 1zm7.36 12.72c.01.17.01.33.01.5a10.799 10.799 0 0 1-16.63 9.09 7.582 7.582 0 0 0 5.63-1.57 3.796 3.796 0 0 1-3.55-2.64 3.795 3.795 0 0 0 1.71-.06 3.847 3.847 0 0 1-2.19-1.32 3.765 3.765 0 0 1-.85-2.4v-.05a3.84 3.84 0 0 0 1.72.47 3.812 3.812 0 0 1-1.69-3.16 3.893 3.893 0 0 1 .51-1.91 10.727 10.727 0 0 0 3.49 2.82 10.773 10.773 0 0 0 4.34 1.15 3.548 3.548 0 0 1-.1-.86 3.798 3.798 0 0 1 3.8-3.8 3.921 3.921 0 0 1 1.51.31 3.75 3.75 0 0 1 1.26.89 7.664 7.664 0 0 0 2.41-.92 3.815 3.815 0 0 1-1.67 2.1 7.431 7.431 0 0 0 2.18-.6 7.497 7.497 0 0 1-1.89 1.96z" transform="translate(-1 -1)" style="fill:#295091;fill-rule:evenodd"/></g></svg>